<?xml version="1.0" encoding="utf-8"?>
<!-- Generator: Adobe Illustrator 25.0.0, SVG Export Plug-In . SVG Version: 6.00 Build 0)  -->
<svg version="1.1" id="Слой_1" xmlns="http://www.w3.org/2000/svg" xmlns:xlink="http://www.w3.org/1999/xlink" x="0px" y="0px"
	 viewBox="0 0 1280 1280" style="enable-background:new 0 0 1280 1280;" xml:space="preserve">
<g id="_x30_V0Uqe_1_">
	<g>
		<g>
			<path d="M661.2,878.7c0,7.5-0.6,14.9-4.3,22.4c-3.2-1.5-6.1-2.9-9.3-4.4c-3,3.1-6.5,3.2-10.5,0.9c-1.6-0.9-3.9-0.7-5.8-1.4
				c-1.9-0.7-3.8-1.7-5.5-2.8c-3.5-2.2-6.9-4.6-10.3-6.9c-1.5-1-2.8-2.2-4.3-3.2c-4.7-3.1-8.4-7.8-14.4-8.9
				c-1.2-0.2-2.4-1.5-3.2-2.6c-2.8-3.5-5.3-7.2-10-8.6c-0.8-0.2-1.2-1.5-1.8-2.3c-0.6-0.8-1-1.7-1.7-2.4c-3.2-3.8-6-8.2-11.9-7.3
				c-0.9-5.2-3.7-7.6-8.6-8.9c-3.1-0.9-6-2.7-9-4.1c-0.4-0.2-1-0.8-0.9-1.1c0.4-3.8-2.3-5.4-4.9-7.2c-1.5-1-1.6-2.4-0.8-4.4
				c1-2.1,1-4.7,1.4-7.1c-9.7-4-15.7-11.4-21.3-19c-1.3-1.8-2.5-3.1-5-3.3c-3.2-0.3-4.8-2.8-4.7-6c0-3.1-0.4-5.5-4.2-6
				c-1-0.1-2-1.6-2.7-2.7c-4.2-6.4-9-12.2-15.3-16.8c-2.6-1.9-4.1-4.4-5.2-7.6c-1.5-4.1-4.3-7.8-6.6-11.6c-0.3-0.5-1-0.8-1.6-1
				c-3.1-1-6.3-1.8-4.9-6.4c0.2-0.6-0.9-1.7-1.5-2.5c-4.9-6.5-9.5-13.2-14.7-19.5c-4-4.9-8-9.7-10.7-15.4c-0.4-0.8-0.7-1.8-0.7-2.7
				c0-6-3.3-10.2-9.3-11.3c-1.3-0.2-2.6-0.2-4.2-0.3c-6.3-12.7-15.1-24.2-17.7-38.6c-1.3-7.5-2-15.1-2.5-22.7
				c-0.2-2.8,1.2-5.8,2-8.6c0.3-1.1,0.9-2.1,1.4-3.1c0.6,0.4,1.3,0.7,1.9,1.1c0.2,1.5,0.6,3,0.5,4.5c-0.7,10.8,2.6,20.3,8.9,28.9
				c3.1,4.3,6.3,8.5,9.6,12.7c3,3.8,3.1,3.7,0.6,8.1c7,10.7,16.4,19.1,26.4,27.5c-3.4,2.7-2.2,5.5-0.8,8.5c2.8,5.8,6.5,10.8,11,15.3
				c4.9,4.9,9.7,10,14.5,15.1c2.1,2.2,4.3,3.8,8.7,4.3c-3.9-4.5-7.2-8.1-10.3-11.8c-0.8-0.9-1.7-2.5-1.4-3.4
				c0.8-2.5-0.4-3.9-1.7-5.7c-4.7-6.6-9.2-13.4-14.1-19.9c-1.8-2.4-5.1-3.9-6.7-6.4c-1.5-2.5-1.8-5.8-2.8-9.3
				c1.6-4.3,0.5-7.8-4.4-12.1c-1.4-1.2-2.8-2.5-4.4-3.2c-6-2.8-8.3-8.1-10-14c-0.7-2.6,0.1-6.2-4-7.3c-0.9-0.3-1.1-3.2-1.6-5
				c-0.8,0.1-1.5,0.2-2.1,0.2c-1.6-4.5-0.3-9.4-4-13.2c-1-1-0.2-3.8-0.2-5.8c0.1-2.5,0.6-4.6-0.7-7.4c-1.2-2.5,0.2-6.4,0.9-9.6
				c0.4-1.9,1.4-3.7,2.4-5.4c0.4-0.7,1.7-1.6,2.2-1.4c0.9,0.4,1.5,1.5,2.1,2.3c0.2,0.2,0.1,0.7,0.1,1c-1.3,11.4,3.8,21,9.2,30.4
				c3.7,6.4,8,12.5,12.3,19c-0.7,0.2-1.5,0.5-2.6,0.8c-1,5.3,2.2,8.5,5.6,11.8c4.2,4,8.3,8.1,12.2,12.4c1.1,1.2,1.7,3.2,1.9,4.9
				c1.3,12.5,7,21.9,18.3,27.8c1.8,0.9,3.3,2.6,4.6,4.3c1.7,2.2,2.9,4.9,4.7,7c1.3,1.6,3,3.1,4.8,4.2c4.1,2.3,4.7,4.4,1.9,8.8
				c0.8,1.4,1.7,2.8,2.5,4.2c0.9,1.6,2,2.3,4,2.1c3.3-0.4,5.3,1.5,4.2,4.5c-1.7,4.7,0.6,7.4,3.4,10.5c3.4,3.6,5.9,8.1,10.4,9.7
				c4.6-4.4,8.6-9.5,13.7-12.8c4.9-3.1,10-7.6,17.1-5.1c0.2-1.2,0.5-2.2,0.4-3.1c-0.6-5.7,2.1-10.6,3.9-15.7c0.3-0.9,1.6-2.4,2-2.3
				c1.1,0.3,2.2,1.2,2.8,2.2c1,1.7,1.8,3.5,2.4,5.4c1.3,4.3,2.8,8.5,3.3,12.9c0.8,7,3.6,13.1,6.8,19.1c3.4,6.5,5.7,13.1,4.8,20.5
				c-0.4,3.1,0.6,5.1,3.9,6.4c3.5,1.4,6.2,4.5,9.5,6.4c5.9,3.4,11.8,6.7,17.9,9.8c9,4.5,18.1,8.8,27.2,13.2
				c-1.6-4.5,0.5-9.9-2.4-14.7c-0.4-0.7-0.4-2.1,0-2.9c1.7-3.5,1-6.8-1.1-9.9c3.5-4,4.1-8.7,3.5-13.6c-0.7-5.7-0.9-11.5-2-17.2
				c-0.7-3.9-0.9-8.9,2.6-12.6c0.5-0.5,0.7-1.5,0.8-2.3c0.9-9.2,1.8-18.4,2.7-27.7c0.2-1.6,0.3-3.3,0.1-5c-0.4-3.4,0.4-6.3,3.1-8.5
				c2.1-1.7,2.3-3.7,2-6.2c-0.5-3.7-1.8-7.6,2.2-10.4c0.2-0.2,0.5-0.6,0.4-0.9c-1.3-5.4,2.6-8.7,5.2-12.2c3.2-4.3,4.6-9,5.6-14
				c2.6-12.8,9-23.4,18-32.7c5.7-5.9,12-10.9,19.7-14.1c5.7-2.4,10.6-1.9,12.5,5.4c2.8,0,5.5,0,8.1,0c1.9,0,3.7,0.1,4.8-1.8
				c1.5-2.6,3.1-5.1,4.5-7.7c2.4-4.3,4.6-4.8,8.6-1.9c0.7,0.5,1.2,1.1,2.2,2c2.6-7.2,7.9-7,14.2-6c10.4,1.7,19.4,5.6,26.6,13.3
				c0.7,0.7,1.5,1.3,2.4,1.7c7.7,2.8,13.6,8.2,19.7,13.4c1.1,1,2.2,2.1,3.5,2.8c10.1,5.1,15.4,14.3,20.8,23.5
				c4.3,7.2,8.4,14.6,12.7,21.9c3.2-1.4,1.9-3,1-4.8c-3.3-6.4-3.2-12.8,0.6-18.9c0.8-1.3,1.6-2.9,2.8-3.4c2.6-1.3,5.5-2.2,8.3-2.9
				c2.8-0.6,3.5-4,7-4.1c7.3-0.2,14.5-1.2,21.8-1.8c0.5,0,1-0.1,1.5-0.2c6.5-1.3,9-0.2,12.6,5.6c3.3,5.2,4.1,11.1,4.9,17
				c1,8.1-1,15.1-6.1,21.9c-4.7,6.3-8,13.6-11.7,20.6c-0.7,1.2-0.8,2.9-0.8,4.3c-0.1,6,0,11.9,0,18.7c7.4-0.9,14,1.7,20.6-2
				c5.1-2.9,10.4-1.1,14.9,2.4c4.2,3.2,5.6,8.1,4.3,15.1c0.8,0.6,1.7,1.3,2.7,1.8c13.7,6.8,23.4,17.8,31.8,30.2
				c2.4,3.6,4.4,7.4,6.7,11c1.4,2.1,1.9,5.1,5.1,5.6c0.6,0.1,1.2,1.5,1.4,2.4c1,4.7,1.8,9.4,4.9,13.4c0.4,0.5,0.1,1.6,0.2,3
				c-3.8-0.3-7.3-0.5-11.7-0.8c0.2,1.9-0.1,3.8,0.5,5.5c1.9,5.6,2.4,11.3,2.4,17.2c0,3.5,1.2,7.1,2.1,10.6c0.7,2.7,0.9,2.6-1.1,5.7
				c-3.2-1.4-6.4-2.9-10.1-4.6c-1.7,7.4-3.8,15-4.9,22.7c-0.4,3.1,1.3,6.5,2.2,9.7c0.6,2.2,1.6,4.4,2.2,6.6
				c1.3,4.4,0.1,7.6-3.5,10.7c-2.5,2.1-4.2,4.5-4.4,8c-0.1,2.2-1.3,4.4-1.8,6.6c-0.3,1.4-0.8,2.9-0.5,4.3c0.5,2.5-0.7,4-2,5.8
				c-2.5,3.4-5.3,6.8-6.8,10.7c-1.2,2.9-2.4,4.9-5.5,5.5c0,3.6-0.6,7,0.1,10.1c1.3,5.9,3.1,11.7,8.9,15.1c5.6,3.2,6.4,8.4,5.2,14.9
				c-1.2-0.7-2.3-1-2.9-1.8c-3.6-4.8-8.1-7.6-14.2-7.9c-2.2-0.1-4.6-1-6.3-2.3c-2-1.6-3.4-1.2-5.4-0.3c-3.4,1.5-6.9,3.1-10.6,3.9
				c-4.4,1-5,0.2-4.5-4.5c-2.2-0.4-4.8-0.2-6.3-1.5c-1.3-1-1.2-3.7-1.7-5.6c-2.4,2.5-5.7,4-8.9,1.5c-2.5-1.9-4-5-6.1-7.7
				c-2.2,0.2-4.7,1-7.1,0.6c-2.2-0.3-4.2-1.8-6.3-2.8c-0.2,0.2-0.6,0.3-0.7,0.6c-2,5.2-4.7,5.6-8.5,1.6c-4-4.3-7.3-8.6-6.2-15
				c0.1-0.8-0.5-1.8-1.1-3.9c-1.7,2.6-3.1,4.2-4,6.2c-1.9,4.2-1.8,4.3-6.7,3.5c-1,1.7-2.1,3.6-3.2,5.4c-1.7,2.8-3.4,5.7-5.2,8.4
				c-2.3,3.4-3.7,7.1-3.7,11.1c0,4.8,0.5,9.6,0.5,14.4c0,2.3-0.4,4.6-0.5,6c-2.7,3-4.9,5.5-7.4,8.3c-0.3-1.6-0.5-3-0.8-4.7
				c-2.7,0.6-5.1,1.3-7.8,1.9c0.6,5-3.3,7.3-5.5,11.5c-0.8-3.7,0.4-7.6-3-8.8c-2-0.7-4.6,0.2-7.6,0.5c-0.8-0.8-2.1-2-3.8-3.6
				c-0.5,2.1-0.9,3.6-1.5,5.7c-1.7-1.5-3.2-2.9-5.2-4.6c-0.4,2.2-0.7,3.8-1.1,6.3c-1.2-2.6-2-4.3-2.9-6.1c0.5-0.8,1.1-1.9,1.8-2.9
				c-0.4-0.4-0.7-0.7-1.1-1.1c-2.4,1.8-4.9,3.5-8.3,6c2.3,0.3,3.5,0.4,5,0.6c0,1.2,0.4,2.7-0.1,3.7c-1.5,2.9-3.4,5.7-5.3,8.8
				c-0.3-2.2-0.5-4.5-0.8-6.8c-0.3-0.1-0.6-0.1-0.9-0.2c-0.5,1.1-1,2.1-1.5,3.2c-3.5-2.7-4.5-2.5-6.3,1.1c-2.7-1.9-3.7-1.3-6.3,4.2
				c-1.2-1-2.3-1.9-3.6-3.1c1.9-1.8,3.8-3.6,6.2-5.9c0-0.1,0-1.3,0-2.4c-1.8-0.9-3.6-2.2-5.5-2.5c-1.6-0.2-2.8,1.3-2.7,3.3
				c0,0.8-0.7,1.6-1.1,2.3c-0.3,0.5-0.8,1.5-0.7,1.6c2.6,1.6,0.8,3,0.1,4.8c-0.7,1.9,0.1,4.4-0.4,6.4c-0.4,1.8-1.7,3.4-3,5.9
				c-1.5-2.8-2.7-4.8-3.9-7.2c-2.3,0.3-2.3,0.3-6.7-4c-0.5,2.3-0.8,4.2-1.1,5.8c-5.7-1.3-9.5-5-13.4-9.6c-2,4.3-3.7,8.2-5.6,12.4
				c-0.9-1.2-1.3-1.9-2.5-3.6c-0.4,2.6-0.7,4.3-0.9,6c-3.3,0.5-5-0.8-5.9-3.6c-0.5-1.6-2.1-2.9-3.2-4.4c-0.8,0.8-1.2,1-1.2,1.2
				c0,7,0,7-8,8.7c-0.2,1.6-0.5,3.2-0.8,5c-2.3,0.4-4.7,0.9-7.5,1.4c-0.1-2.2-0.2-4.3-0.4-6.7c-1.2,0.2-2.3,0.3-3.3,0.4
				c-1.2-1.5-0.4-5.7,1.1-7.6c-0.6-2.4-1.5-4.4-1.5-6.5c-0.1-10.3,0.1-20.6-0.1-31c-0.1-8-0.7-15.9-1-23.9c-0.1-3.6-0.1-7.3,0.1-11
				c0.2-3.3,1.1-6.6-1.7-9.4c0.9-6.6-4-8.1-8.6-10.3c-3.8-1.8-5.4-5.8-6.7-9.6c-1.2-3.6-1.7-7.4-2.7-11.9c-1.1,0.8-2.2,1.4-3,2.3
				c-2.1,2.3-3.6,2.6-5.9,0.7c-2.2-1.8-3.6-6.8-2.4-9.5c2.6-5.8,3.3-11.8,2.8-18c-0.1-1-0.8-1.9-1.3-2.8c-0.7-3.2-0.9-6.6-2.2-9.5
				c-1.5-3.2-2.4-6.3-2.6-9.9c-0.4-6.9-1.2-13.9-1.9-20.8c-0.5-4.3-1.1-8.5-1.6-11.5c-9.5-5.8-19-9.3-28.2-13.3
				c-9.3-4-17.8-9.8-26.7-14.8c-1.4,4-1.3,4,0.7,5.8c1.2,1.1,2.3,2.4,3.5,3.5c3.8,3.2,7.3,6.9,11.6,9.3c4.7,2.7,9.5,6.8,16.4,3.7
				c-1.5,4.8,0.8,6.7,4.2,8c1.2,0.5,2.4,1.2,3.2,2.2c4.2,5.2,9.4,8.7,15.9,10.9c0.7,6.9,1.3,13.8,2,20.5c-3.8,2.1-7.2,3.9-7.2,8.2
				c1.7,1.4,3.1,2.7,4.6,3.9c0.5,0.4,1.3,1,1.6,0.8C657.7,874.6,659,877.7,661.2,878.7z M875.2,931.5c-0.7,2.1-1.3,4.3-2,6.4
				c0.4,0.3,0.8,0.5,1.2,0.8c2.5-2.3,5-4.6,7.9-7.3c-2.5-2-4.2-3.3-6-4.7c-2.2-2.2-4.5-2-6.7-0.1c-5.2,0.8-6.4,2.9-3.9,7.3
				c3.2-1.5,3.1-4.7,3.8-7.4c0.5,2.6,1.1,5.2,1.7,8.4C872.8,933.5,874,932.5,875.2,931.5z M666.4,863.4c3.7-3.6,0.8-7.1,0.3-10.8
				c-4.8,1.3-3.1,5.2-3.7,7.9c-0.6,2.8,1.1,3.4,3.5,2.7c-6,3.3-6.5,1.1-3.7,11.7c2.5-1.8,7.7-0.4,7.3-5.5
				C670.1,867.1,670.1,863.8,666.4,863.4z M874.1,770.9c-2.7-0.2-5.5-0.3-8.3-0.5c0.4,2.1,0.6,3.7,1.1,6.2c0.6-1.9,0.9-3,1.4-4.4
				c4,0.4,7.7,1,11.5,1.3c8.6,0.5,17,2.4,25,5.6c2.3,0.9,3.8,2.2,4.9,4.4c4.6,9.4,9.4,18.6,14.2,27.9c0.5,1,1.3,1.9,1.9,2.9
				c0.2-1.4-0.2-2.4-0.7-3.4c-4.6-9.3-9.5-18.6-13.7-28c-2.1-4.6-5.1-6.8-9.9-7.5C892.2,774,883.1,772.3,874.1,770.9
				c-0.2-0.9-0.1-2.1-0.6-2.7c-5.5-6.6-11.1-13-16.7-19.7c-0.5,0.5-1.1,1.1-1,1.2C861.2,757.3,866.8,764.8,874.1,770.9z
				 M875.2,655.6c0.4,0.9,1.4,2,1.1,2.5c-2,4.4-1.8,9-2,13.6c-0.1,1.2-1.1,2.4-1.9,3.4c-2.6,3.1-5.3,6.2-8.1,9.4
				c0.9,0.3,1.4,0.6,1.8,0.5c6.6-1.9,12.7-12,11.7-19.2c-0.2-1.6,0.6-3.4,0.9-5.1c2.9,0.6,5.7-3,8.5,0.5c0.5-2.5,0.9-4.6,1.3-7.1
				c-4.7,0.6-9.1,1.1-13.4,1.6c0.6-1.6,1.1-3.2,1.7-4.8c-4-0.3-6.7,1.1-7.5,5c-0.9,4.5-2.1,8.9-2.7,13.5c-0.3,2.5-0.8,3.9-3.1,5.5
				c-3.5,2.4-6.3,5.7-9.4,8.7c2.2,0.5,3.7,0,5.3-0.1c3.2-0.2,5.7-1.3,7.1-4.4c0.6-1.3,1.7-2.4,2.6-3.6c3-3.7,4.5-7.9,4.3-12.8
				C873.5,660.2,874.6,657.9,875.2,655.6z M670.5,846.6c-3.6,2-2.2,5-1.5,7.7c0.8,2.9,2,5.7,3,8.7c3-1.2,2.8-3.8,2.9-6.2
				c0.1-3.7-1.5-6.8-3.8-9.6c0.3-2.5,0.8-5.1,0.7-7.6c-0.3-7.1-1-14.2-1.5-21.4c-0.2-3.1,0.8-6.7-0.4-9.3c-2.2-4.7-1.5-9.7-2.2-14.4
				c-1.3-8.6-1-17.6-1.3-26.4c0-1.4,0-2.7,0-4.9c-0.7,1.1-1,1.3-1,1.6c-0.3,11.9-0.5,23.8-0.9,35.7c-0.1,2.1-1.2,4.1-1.2,6.1
				c-0.2,5.3-0.3,10.7,0.1,16c0.3,5.4,0.9,10.8,3.8,15.7C668.7,840.9,669.4,843.9,670.5,846.6z M492.8,755.7
				c-1.1,0.1-2.1,0.2-3.2,0.4c0.2,1.2,0.1,3,0.8,3.6c1.3,1,3.3,1.2,4.9,2c1.4,0.6,3.1,1.2,4,2.3c2.6,3.4,5,7,7.3,10.6
				c1.2,1.8,2.4,2.8,4.8,2.8c3.1,0.1,4.7,2.1,4.9,5.2c0.1,1.1-0.2,2.2-0.3,3.1c0.5,0.4,0.8,0.7,1,0.7c5.3,0.9,5.2,0.9,6.6,6
				c0.3,1.2,1.1,2.4,1.9,3.5c1.9,2.7,3.7,5.5,5.9,8c4.5,5.1,9.3,9.9,15.4,12.7c2.5-1.3,4.8-2.5,7.1-3.7
				c-5.7-5.8-11.6-11.4-17.1-17.4c-9.4-10.3-18.6-20.8-27.8-31.2c-2-2.2-3.9-4.5-2.7-7.9c0.2-0.4-0.5-1.1-0.8-1.7
				c-5.4,6-8.1,6.1-12.8,1c2.8,0,5.6,0,9.1,0c-1.8-3.7-3.2-6.5-4.8-9.7c-4.5,3.6-8.9-0.2-13.4,0.2
				C485.2,750.8,488.6,753.5,492.8,755.7z M828.3,813.6c1.4-2.2,2.8-4.4,4.3-6.6c-5.8,4.5-11.9,5.9-18.9,5.6
				c-3.5-0.2-7.2,1-10.6,2.1c-1.6,0.6-3.6,2.3-4,3.9c-1.2,5.1-1,10.4-0.2,15.6c2.4,0.3,4.3,0.4,6.6,0.7c0.4-4.5,0.8-8.6,1.1-12.7
				c0.4-5.3,3.1-7.6,8.2-7.7c4.6-0.1,9.1-0.7,13.7-1c-0.9,0.7-1.7,1.7-2.7,1.9c-3.7,0.5-7.5,0.9-11.3,1c-3.4,0.1-5,1.1-5,4
				c-0.1,5.1,0,10.2,0,15.8c1.6,0.9,3.7,2.1,5.9,3.3c2.8-4.5,3.9-8.6,1.1-13.2c-1.2-2-1-4,1.1-5.1c1.5-0.8,3.4-1.3,5.1-1.2
				c3.6,0.2,7.2,0.9,10.9,1.4c3.6,0.5,7-0.4,9.9-2.5c3.7-2.8,7.4-5.6,10.8-8.8c5.7-5.1,11.4-9.9,20.2-9.9c-3.7-4.2-8.1-5.7-12.5-5.2
				c-9.9,1.1-19,4.1-25.5,12.6C834.4,810.1,831,811.6,828.3,813.6z M738.5,729.3c3.2-6.1,7.5-11,13.3-14.7c2.5-1.6,4.7-3.7,6.8-5.8
				c7.1-7.7,14.2-15.4,21.2-23.2c8.2-9.2,13.6-20,16.1-32c0.8-3.7,1.7-7.6,1.3-11.3c-1.5-15.6-13.4-29-28.8-31.5c-3,5-6.1,10-9.1,15
				c2.7,1.9,5.4,3.3,7.6,5.3c7.8,7,11.5,15.8,9.7,26.3c-2,11.8-7.9,21.8-15.5,30.7c-6.8,8-14.2,15.5-21.6,22.8
				c-4.5,4.4-9.9,7.8-16.4,8.7c-13.3,1.8-30.7-8.7-36.6-22c-8.5-18.9-3.8-40.7,11.9-54.4c3.8-3.4,8.1-6.3,12.3-9.5
				c-1.2-4.1-2.4-8.1-3.7-12.6c-8.9,5.3-16.2,11.5-21.8,19.8c-7.3,10.7-10.3,22.8-11.6,35.5c-0.6,5.6-0.8,11.2,0.7,16.8
				c3.4,13,12.1,21.9,23,28.8c4.3,2.7,9.3,4.5,13.4,7.6c4.2,3.1,8.2,6.8,11.2,11c2.1,2.9,4.2,4.2,7.3,3.8c3.8-0.5,7.5-1.7,12-2.8
				c-3.8-2-4-4.5-3.1-7.5c0.5-1.6,0.5-3.3,0.7-4.9L738.5,729.3z M693.9,730.7c-0.5-0.1-1-0.2-1.5-0.2c-0.5,2.5-2,5.3-1.4,7.5
				c1.5,6.2,3.5,12.4,6,18.3c2.4,5.7,8,8.4,13.2,10.9c5.7,2.8,9.1,7.1,10.3,13.1c0.9,4.5,1.5,9.1,1.9,13.7c0.4,4.3,0.7,5.2,4.3,6.8
				c-1.1-8.1-2.1-16.3-3.2-24.4c-0.7-5.1-1.3-10.1-1.9-15.2c-0.2-1.7,0.2-3.1,2.2-3.9c6.6-2.8,13.3-3.5,20.3-3
				c1.1,3.8,2.4,7.2,3.2,10.8c1.5,6.6,2.9,13.2,4.2,19.9c0.8,3.9,1.2,7.8,2,11.7c0.3,1.4,1,2.7,1.7,4.6c8.6-6.4,16.6-12.1,24.3-18.1
				c3.1-2.4,5.9-5.4,8.2-8.6c7.1-9.8,11.1-20.4,7.6-32.7c-1.4-5-3.4-9.9-5-14.8c-0.3,0.1-0.7,0.1-1,0.2c1.2,6.4-1,11.9-4.5,16.9
				c-3.3,4.8-6.7,9.5-10.6,13.8c-6,6.7-10.9,13.7-11,23.2c0,3.8-1.5,7.7-4.4,10.8c1-5.3,0-10.4-1.6-15.3c-1.3-3.8-0.4-7.2,1.5-10.4
				c1.9-3.1,3.8-6.3,6.3-8.9c4.5-4.9,9-9.8,14.1-14c7.4-6,8.7-23.3,2.3-29.5c-1.9,3.2-4.9,6.1-5.2,9.2c-0.5,7.5-3.8,13.1-8.6,18.5
				c-5,5.7-10.6,8.8-18.3,7.9c-1.6-0.2-3.8-0.4-4.8,0.4c-5.8,5-12.4,3.5-19,3c-3.6,4.2-5.9,4.9-11.2,3c-3.4-1.2-6.8-2.6-9.9-4.5
				c-6.4-3.8-10.2-9.3-10.2-17.1C694.4,733.2,694.1,732,693.9,730.7z M726.4,855.3c6.5,10.5,12.3,21.2,15.7,33.2
				c2.4,8.6,5.5,17,8.2,25.4c1.1,3.5,3.4,5.9,6.7,7.6c2.8,1.5,5.8,2.9,7.9,5c9.4,9.6,21.8,13.7,33.5,19.1c3.5,1.6,5.4,0.8,8.2-3
				c-4.2-1.6-7.8-4.2-12.5-4.2c-2.5,0-5,0.1-7.5,0c-3.3-0.2-4.4-2-3-4.9c0.5-1.2,1.6-2.1,2.4-3.1c2-2.4,1.9-4.5-0.3-6.5
				c-0.7-0.6-1.6-1-2.4-1.5c1.7-2.5,3.1-4.8,1.6-7.6c-7.1,1.8-11.7-0.3-14.4-6.8c3.2-3.3,7-0.9,12.1-0.5c-4.7-4,2.5-5.8-0.2-10.1
				c-1.8-2.8-1.2-7.1-1.7-11c-4.4,0-6-3.2-8.1-6c-1.8-2.3-4-4.4-6.4-5.9c-4.9-3-10.3-5.3-15.3-8.4c-2.5-1.5-4.6-2.2-7.4-1
				c-2.3,1-4.3,0.6-6.4-1.1C733.8,860.9,730,858.2,726.4,855.3z M699,707.2c6.6-7.6,7.3-12.9,3.4-21.4c-1.2-2.5-2-5.3-2.6-8
				c-1-4.6,1.3-8.1,5.9-9.4c5.4-1.5,10.5-0.8,15.6,1.3c7.9,3.3,15.6-0.5,18.3-8.7c2.5-7.8-0.8-22.9-11.1-29.9
				c-1.7-1.2-3-0.6-4.6-0.1c-11.6,4.3-21.5,11-29.2,20.8C681.3,668.8,681.5,693.4,699,707.2z M840.3,851.7c0.1-1.3-0.1-3.3,0.4-5.2
				c0.6-2.8,2.6-3.8,4.7-2.4c8.6,5.3,16.3,3,24-2.2c3-2.1,6.7-3.8,10.3-4.3c7-0.9,14.2-0.8,21.3-1.2c1.1-0.1,2.8,0,3.2-0.6
				c1-1.8,1.9-3.9,2.1-5.9c0.2-2,0.7-4.4-2.1-5.4c-3.6,2.4-3.5,2.4-7-0.4c-5.3-4.3-11.3-6-18.1-4.9c-7.5,1.2-13.8,5-19,10.2
				c-6.3,6.3-13.3,7.4-21.4,5.5c-1.9-0.4-3.8-0.6-6.5-1c0.3,2,0.7,3.1,0.7,4.3c0,1.4,0.3,3.2-0.4,4.2c-2.3,3-5,5.6-7.8,8.7
				c-3.7-2.8-7.3-5.4-10.7-8.3c-5.7-4.7-16.3-6.8-23-2.6c1.7,4.4,3.5,8.8,5.2,13c12.9,1.5,15.6,1.2,26.2,12.8
				C828.3,861.4,833.9,856.9,840.3,851.7z M775.9,871.8c0.4-0.2,0.8-0.4,1.1-0.5c1,8.1,8.4,9.4,13.8,14.1c0-2.2,0-3.5,0-4.8
				c0.3-0.1,0.6-0.3,0.9-0.4c1.4,3.4,1.7,7.4,5.7,9.2c3.3,1.5,6.4,3.6,10.1,5.7c-0.4-2.5-0.7-4.2-1-5.9c1.5,2.2,2.2,4.7,3,7.1
				c0.4,1,0.9,2.3,1.7,2.8c4.2,2.5,8.6,4.8,13.8,7.7c-0.8-3.3-1.4-5.7-1.9-8c2.9,2.7,5.4,5.6,7.2,8.9c2.8,4.9,6.3,8,12.3,7
				c0.8-0.1,1.6,0.3,2.4,0.4c6.5,0.8,11.6,4.7,17.2,7.5c2.8,1.4,6,0.6,7.1-1.9c1.1-2.8-1.4-3.3-3-4.2c-15.9-9.3-31.6-18.9-47.6-27.9
				c-42.1-23.8-84.4-47.4-126.6-71c-1.2-0.7-2.5-1.2-3.7-1.8c-0.3,0.3-0.5,0.7-0.8,1c0.6,0.3,1.2,0.5,1.7,0.9
				c14.7,9.6,29.4,19.2,44.1,28.9c2.3,1.5,5.7,2.4,5.4,6.3c0,0.4,1.2,1,1.8,1.4c2.2,1.4,4.3,2.8,6.6,4.3c0.4-1.2,0.7-2,1.4-3.8
				c1.6,7.6,8.1,8.3,12.3,12.1c0.9-1.3,1.6-2.1,2.7-3.7c0.6,8.2,7.2,9.7,12.5,13.7C775.9,874.6,775.9,873.2,775.9,871.8z
				 M912.2,852.7c0.1-0.3,0.3-0.6,0.4-0.9c-2.6-1.8-5.2-3.9-8-5.4c-1.7-0.9-3.8-0.9-5.7-1.4c-4.3-1.3-5.4-0.5-5.6,4
				c-0.2,7.3-0.8,8-8.1,8.9c-3.6,0.4-7.3,0.4-10.9,0.6c-2.3,0.1-4.7,0-7,0.4c-6.1,0.9-6,1-7.3,6.8c-0.1,0.2-0.5,0.4-1,0.8
				c-0.7-0.2-1.6-0.6-2.6-0.8c-2.5-0.3-5,0.4-5.7,2.9c-1.4,5-2.3,10.2-3.4,15.4c2.3,0.9,4.4,1.7,7.1,2.7c0-3.3-0.1-6.1,0-8.9
				c0.2-3.4,2.9-5.7,7.3-6c-0.5,2.6-1,5.1-1.5,7.5c-0.4,2.6-0.7,5.2-1.1,7.9c2.1,0.9,3.8,1.6,6.2,2.7c0-3.7,0-6.5,0-9.6
				c2.4-0.7,4.5-1.3,7-2c-0.7,3.8-4.4,5.9-2.3,9.4c10.6-1.1,13.1-2.8,14.7-10.2c2.6-0.5,5.4-1.1,8.1-1.6c1-2,1.9-3.8,3.1-6.2
				c-7.3,0-13.8,0-20.4,0c0.5-1.4,1.1-2.3,1.8-2.3c3.9-0.3,7.9-0.8,11.8-0.3c5.8,0.7,10.7-2,12.1-7.5c0.5-2.1,0.8-4.2,1.5-6.3
				c0.8-2.4,2.3-3.5,5-2C909.1,852.1,910.7,852.3,912.2,852.7z M415.8,621.4c-1,10.9,0.8,21.5,3.9,31.8c2.8,9.3,8,17.4,12.7,25.8
				c1.5,2.7,3.2,4.4,6.3,5.6c6.5,2.5,11.1,6.9,11.9,14.5c0.2,2.2,1.1,4.6,2.4,6.3c8.6,11.4,17.6,22.5,26.1,33.9
				c3.8,5,9.2,3.7,14,4.7c0.5,0.1,1.4-1.4,1.6-1.7c-2.8-2.2-5.6-4-8-6.2c-4.8-4.4-9.3-9-14.1-13.4c-6-5.5-10.6-11.9-13-19.7
				c-0.6-2-0.2-4.3-0.3-7.3c-0.3-0.2-1.4-1-2.3-2c-6.5-6.6-13-13.3-19.5-19.9c-3.3-3.3-4.8-6.7-0.8-10.5
				C424.7,651.6,416.6,638.3,415.8,621.4z M432.5,604.6c-1.7,3.4-1.7,6.7-0.5,9.3c0.7,1.5,0.8,2.4,0.7,3.8c-0.2,4-1.4,8.2,1.7,11.8
				c0.7,0.8,0.5,2.3,0.9,3.3c1.3,3.2,1.8,7.5,4.1,9.2c3.1,2.3,3.1,5.2,4.1,7.9c1.5,4,2.8,8.1,4.1,12.1c7.9,2.9,13.4,8.2,16.5,15.7
				c0.9,2.3,1.4,5.3,0.8,7.7c-0.7,2.8,0.2,4.2,1.9,6c3.4,3.6,6.9,7.2,9.8,11.2c4.6,6.3,8.7,12.9,13.1,19.5c-1.9,2.9-2,3.8,1.3,5
				c4,1.5,8.2,2.3,12.4,3.1c0.8,0.1,1.9-1.3,2.9-2.1c-0.7-0.9-1.3-2-2.2-2.7c-1.1-1-2.7-1.7-3.7-2.9c-2.2-2.7-4-5.7-6.1-8.5
				c-1-1.2-2.3-2.5-3.7-3.1c-11.1-5.1-16.8-14.1-18.6-25.8c-0.6-3.5-1.6-6.7-3.9-9.4c-4-4.6-7.9-9.4-12-13.9
				c-3.2-3.6-5.8-7.2-4.2-12.4c0.2-0.8-0.6-2-1.1-3c-3.8-7-8-13.8-11.2-21C436.9,618.9,435,612,432.5,604.6z M768.8,672
				c7.6-18,5.9-28.6-5.2-38c-2.1,0.8-3.9,2-5.8,2.2c-7.5,0.8-13.8,8.7-12.7,16.2c1.2,8.7,8.1,14.8,17.1,14.9
				C765.3,667.4,767.8,667.9,768.8,672z M662.1,711.6c1.2-0.8,2.4-1.3,2.9-2.1c2.3-3.8,4.4-7.7,6.5-11.6c0.3-0.5,0.6-1.2,0.5-1.8
				c-0.6-5.3-1.3-10.6-2-16.5c-2.5,2.8-4.1,5.3-4.2,8.6c0,1.4-0.4,3.4-1.3,3.9c-2.6,1.5-2.3,3.7-2.2,6.1c0.1,2,0.1,4,0.2,6
				c0.1,2.3-0.4,4.4-2.8,5.3c-2,0.7-2.1,2.1-2.1,3.9c0,4.9,0.2,9.9-0.5,14.8c-1.1,7.3-3.9,14.5-1.8,22.1c0.2,0.6-0.5,1.4-0.7,2.1
				c-0.5,1.4-1.3,2.8-1.5,4.3c-0.6,3.3-0.2,6.5,0.2,9.8c0.9,8.7,0.3,17.5,0.3,26c-1.3,0.4-2.1,0.7-3.1,1c0.9,1.5,2.2,2.6,2.2,3.6
				c-0.1,4.1,1.1,7.9,1.7,11.8c1.4,9.8,1.5,19.8,2.3,29.7c0.5,6.2,1.5,12.4,2.3,18.7c0.8-1.7,0.9-3.3,0.8-5
				c-0.4-10.1-0.9-20.3-1.3-30.4c-0.4-10-0.8-20.1-1.2-30.1c-0.2-4-0.5-7.9-0.3-11.9c0.5-11,1.7-22,1.7-33c0-8.2,2.5-16.1,2.3-24.3
				c0-0.6,0.6-1.2,1-1.7C663.8,717.8,665.4,714.9,662.1,711.6z M817.1,729.3c-0.4,0-0.7,0.1-1.1,0.1c-2.3-5.1-4.5-10.2-6.8-15.3
				c-1.8-4.1-4.2-7.8-8.5-9.3c-5.1-1.8-10.5-2.9-15.7-4.3c-0.3-0.1-0.7,0.5-1.2,1c3.9,4,10.3,0.3,13.6,4.7c3,3.9,8.6,5.6,9.9,10.9
				c-2-1.8-4.1-3.7-6.2-5.5c-5.1-4.5-10.9-6.9-17.8-6.2c-0.9,0.1-1.8,0.8-3.1,1.4c0.9,0.3,1.1,0.4,1.2,0.4c1.3,0,2.7,0,4,0
				c8.2,0.1,14.7,3.4,18.9,10.7c2.3,4,4.9,7.9,7.6,11.7c4.5,6.3,7.7,6.1,11.3-0.8c0.3-0.7,0.4-1.5,0.6-2.3c3.4,1.5,5.2,0,6.6-2.6
				c0.7-1.2,1.2-3,2.3-3.4c3.4-1.3,4.6-4.1,5.8-7c0.1-0.2-0.1-0.5-0.2-0.8c-1.3-0.2-2.6-0.4-3.4-0.5c2.6-1.2,5.7-2.1,8.1-3.9
				c5.2-3.9,9.8-8.5,14.9-12.4c2.9-2.2,3.9-4.9,4.9-8.4c-6.1,0.8-11.6,1.6-17.2,2.4c-0.4,1.6-1,3-1.2,4.4
				c-1.3,7.4-4.9,12.8-12.3,15.2c-1.2,0.4-2.2,1.3-3.2,2.2c-2.4,2.1-4.5,4.5-7,6.4C818,720.7,815.4,724,817.1,729.3z M831.9,830.5
				c2.4,0.5,4.8,1.2,7.3,1.6c5.9,0.9,11.3,0.6,16.3-3.7c7.7-6.7,16.2-12.1,27-12.6c1.2-0.1,2.4-0.4,3.9-0.6
				c-3.8-4.2-7.2-8-10.7-11.7c-2-2-5.3-2-7.2-0.3c-2.1,1.9-0.6,3.6,0.4,5.3c0.4,0.7,1,1.4,1.2,2.2c0.2,0.9,0.4,2.4-0.1,2.7
				c-0.8,0.5-2.2,0.7-3,0.4c-1.9-0.8-3.6-2-5.8-3.3c-1,2-1.6,4.1-2.9,5.4c-1.4,1.4-3.8,1.8-5.4,3.1c-0.9,0.7-1.3,2.2-1.8,3.4
				c-2.4,5.6-6.3,7.1-11.9,4.9c-4-1.5-8.2-2.7-12.4-3.5c-4-0.8-5,0.5-5.2,4.5c-0.1,2.3-0.1,4.9-1.1,6.8c-3.3,5.9-1.3,10,3.9,13.5
				c2.1-2.9,4.2-5.9,6.2-8.8C828.3,835.9,828.7,833,831.9,830.5z M917.5,826.1c3.8,7.4,7.5,14.6,11.4,21.8c0.6,1.1,2.1,1.8,3.3,2.5
				c2.1,1.2,4.6,1.9,6.3,3.5c3.9,3.6,7.4,7.6,11.4,11.8c1-3.2,1.5-5.6,2.5-7.8c1.4-2.9,0.2-4.9-1.4-7.2c-7.4-10.2-14.7-20.5-22-30.7
				c-0.9-1.3-2-2.4-3.1-3.8C923.1,819.6,920.5,822.7,917.5,826.1z M780.5,953.7c0-0.3,0-0.6,0.1-0.9c-8.3-4.2-16.6-8.3-24.7-12.6
				c-11-5.8-18.3-14.6-21.4-26.7c-2.1-8.1-3.4-16.5-6.8-24.3c-3.8-8.8-8.4-17.2-14.4-24.9c-2.2,1.3-4.1,2.5-7.5,4.6
				c1.6,0.8,2.7,1,3.4,1.7c8.2,7.9,13.8,17.2,16.7,28.3c1.5,5.7,3.1,11.5,4.6,17.2c2.6,9.7,7,18.1,15.8,23.9c4.6,3,8.8,6.5,13.1,9.9
				c4.4,3.4,9,5.9,14.8,2.9c0.6-0.3,1.8,0.3,2.7,0.4C778,953.4,779.2,953.5,780.5,953.7z M785.7,951.2c-0.2-6.5-0.9-7.4-5.3-8.7
				c-2-0.6-4-1.5-5.9-2.4c-6.3-3.3-12.6-6.5-18.8-10.1c-2.3-1.4-4.6-3.4-6.1-5.6c-4.8-7.1-7.4-15-9.2-23.4
				c-3.1-14.5-11.5-26.6-18.7-39.2c-1.4-2.5-3.5-1.4-6-1c3.5,5.8,6.6,11.3,10.1,16.5c3.6,5.3,5.9,11,7.3,17.2
				c1.3,5.6,2.8,11.2,4.4,16.7c3.8,13.1,11.2,23.1,24,28.7c5.3,2.3,10.3,5.2,15.5,7.7C779.8,948.8,782.5,949.8,785.7,951.2z
				 M568.6,736.8c-0.1,0.6-0.1,1.3-0.3,1.9c-1.8,6.9-0.4,12.7,5.4,17.3c0.5,0.4,0.7,1.4,0.9,2.2c0.8,2.3,1.4,4.7,2.5,6.8
				c2.2,4.1,5.7,7.4,1.6,12.8c-2.1,2.7-1.8,7.3-2.5,11c-1.2-0.1-2.3-0.2-3.3-0.2c0.2,2.6,0.3,4.8,0.5,7c-3.7,0.2-6.7,0.3-9.6,0.5
				c1.3,2.5,2.4,4.5,3.4,6.5c1.1,2,3.6,2.9,4.3,1.3c1.3-2.8,3.7-3.4,6.1-4.5c2.2-1,2.6-3.2,2.3-5.5c-0.2-1.8,0-3.6,0-5.4
				c0.4-0.1,0.9-0.1,1.3-0.2c0.6,1.4,1.2,2.7,1.8,4.1c4.3-0.7,5.4-1.1,5.3-3.8c-0.1-5.3,0.6-11.1-1.4-15.7
				c-4.7-11-8.4-22.2-12.7-33.3C573.4,737.1,571.8,734.9,568.6,736.8z M905.9,742.4c0.7-1.7,1.3-3.2,2-5c-4.6,0-8.9,0-13.2,0
				c-5,0-5.1-0.2-5.2-5.4c-0.1-4.7-0.3-9.4-0.5-14.3c-3.9,4.4-7.4,8.4-11.7,13.4c1.5,6.9,3.6,16,5.6,25.2c4.3,0.4,8.4,0.8,12.5,1
				c4.2,0.2,8.4,0,12.6,0c-0.8-3.8-2.8-5.3-6.5-4.8c-2.3,0.3-4.7,0.1-7-0.1c-3.7-0.3-4.1-0.9-4.1-5.3c0-4,0.4-4.5,4.1-4.6
				C898.3,742.3,902.2,742.4,905.9,742.4z M568.2,787.7c0.4-0.3,0.8-0.7,1.2-1c-0.4-0.9-0.6-2.1-1.2-2.6c-2.2-1.7-5-2.7-7-4.7
				c-3.9-3.9-7.2-2.7-10.9,0.3c-1.5,1.2-3.5,1.9-5.3,2.5c-0.7,0.2-1.6-0.6-2.5-1c0.4-0.8,0.7-2.3,1.2-2.4c4.4-0.2,7-3.3,10.2-5.6
				c1.1-0.8,3.3-0.9,4.6-0.4c2.7,1,5.3,2.6,7.9,4.1c2.1,1.2,3.9,1.7,4.9-1.2c-2.2-2.2-4.2-4.5-6.4-6.4c-2.8-2.3-5.8-3.6-9.5-1.6
				c-3.2,1.7-6.7,2.7-10,4.1c-2.3,1-3,0.3-2.9-2.1c4.3,1.1,6.9-1.2,9-3.9c1.5-2,2.7-3.2,5.6-1.2c0.4-4.6,2.8-4.2,5.7-3.3
				c3.3,1,5.5,2.9,6.7,6.1c0.9,2.3,2.3,2.7,4,0.3c-1.9-4.1-5.3-6.8-9.1-8.8c-1.9-1-4.6-1.7-6.5-1.1c-3.1,0.9-6.1,2.6-8.7,4.6
				c-2.1,1.6-3.9,3.2-6.8,3.5c-3.4,0.4-4.7,3.4-3.5,6.6c0.4,0.9,1,2,0.7,2.7c-1.6,3.6-1.5,6.8,0.7,10.3c0.9,1.5,0,4.6,2.7,4.5
				c2,0,4-1.3,5.8-2.4c1.4-0.8,2.4-2.2,3.7-3.3c0.5-0.4,1.2-1.2,1.6-1C558.7,784.8,564.8,781.2,568.2,787.7z M692.1,811.5
				c-0.2,0.2-0.3,0.4-0.5,0.6c0.4,0.4,0.7,1,1.2,1.3c56.9,36.2,117.3,66.2,175.4,100.5c-0.9-1.7-2.1-3.2-3.7-4.2
				c-2.9-1.9-6-3.5-9-5.2c-30.8-17.7-61.5-35.3-92.3-52.9c-12.9-7.4-26-14.6-39-21.9c-8.7-4.8-17.4-9.5-26.1-14.4
				C696.1,814.1,694.1,812.7,692.1,811.5z M938.3,925.4c-0.4,0.4-0.7,0.9-1.1,1.3c2.8,2.3,5.5,4.6,8.4,7c2.3-3.4,4.2-6.5,6.5-9.3
				c3.4-4,3.1-8.3-1-11.4c-2.6-2-5.2-4.1-7.9-6c-0.8-0.6-1.8-0.8-2.7-1.2c2.3,5.3,8.4,6.7,11,11.4c-0.3,0.3-0.5,0.5-0.8,0.8
				c-2.8-2.2-5.7-4.4-8.5-6.6c-0.5,0.9-0.9,1.5-1.3,2.1c-3.1-1.3-4.6-5.7-8.9-4.2c-0.4,0.1-1.3-0.9-1.8-1.6c-2-2.5-3.7-5.3-6.1-7.4
				c-3.5-3.1-7.3-5.8-11.2-8.4c-1.9-1.3-4.1-2-6.4,0.2c10.8,7.4,21.1,14.9,29.7,24.5c-1.2-0.3-1.9-1-2.8-1.6c-9-7-18-14.1-27.1-21.1
				c-0.6-0.5-1.7-0.3-2.5-0.5c-0.1,0.3-0.2,0.7-0.3,1c1,0.8,2,1.7,3.1,2.3c13.8,8.8,25.6,20.1,38.3,30.3c0.6,0.5,0.7,1.8,1,2.7
				c-0.3,0.1-0.6,0.2-0.9,0.3C942.8,928.5,940.5,926.9,938.3,925.4z M835.4,732.5c-2.1-4.2-5.9-5.6-7.4-2.6c-2.2,4.6-5.9,5.1-10,5.9
				c-5.1,1.1-8.3,4.5-9.6,9.7c-1.4,5.7,0.5,10.5,4.7,14.3c1.1,1,3,1.7,4.5,1.6c4.8,0,9.1-1.8,12.3-5.4c5.3-6.1,7.6-13.3,7.6-22
				c-3.4,2.3-6.4,4.4-9.5,6.5c-0.2-0.3-0.5-0.7-0.7-1C830,737.3,832.5,735,835.4,732.5z M927.5,870.7c5.8,4.1,11.4,7.5,16.3,11.5
				c4.9,4,9.3,8.8,13.8,13.1c0.3-4.1,0.6-7.9,0.9-12.1c-1.5-1.8-5.3-2.6-4.8-6.7c2.3,0.3,3.7,3.8,6.4,1.2
				c-7.6-6.9-15.1-13.8-23.1-21.1c0.2,2.8,0,5,0.6,6.9c0.6,2,2,3.7,3.3,6c-2.8-0.3-4.7-3.6-6.9-0.6c1.8,1.5,3.5,3,5.2,4.5
				c-0.2,0.3-0.5,0.7-0.7,1c-2.6-1.8-5.3-3.5-7.8-5.2c1.2-3.8,2.2-7.1,3.3-10.4c-0.4-0.1-0.8-0.3-1.2-0.4
				C931.1,862.7,929.3,866.8,927.5,870.7z M907.3,746.9c0.1,10.6,8.9,16.5,16.7,11.9c4.1-2.4,5.7-6.5,5.8-10.9
				c0.1-7.7-3.9-12.4-9.8-13.5c-5.2-1-10.7,3.2-12.3,9.2C907.4,745,907.4,746.3,907.3,746.9z M795.6,834.7c0-4.2,0-8.2,0-12.2
				c0.1-6.1,2.2-9.1,7.9-11.1c2.7-0.9,5.5-1.2,8.2-2c5.7-1.7,11-3.7,13.4-10c0.7-1.9,2.5-3.5,4.2-4.8c5.6-4.3,11.4-8.4,17.7-13
				c-1.1-0.6-2.2-1.9-3-1.7c-4.4,1.2-9.5-1-14.1,2.7c1.9,0.7,3,1,4.9,1.7c-7.1,5.9-12.7,12.1-17.2,19.4c-0.9,1.5-3.5,2.5-5.5,2.7
				c-6.6,0.8-12.4,3.3-18.1,6.6c-4.9,2.9-9.4,6-6.5,12.8c0.2,0.4,0,1,0.1,1.5c0.5,3.2,1.1,6.4,1.7,9.8
				C791.5,836.2,793.2,835.6,795.6,834.7z M780,825.7c-4.9,0.8-9.2,1.3-13.5,2.3c-1.7,0.4-3.5,1.5-4.5,2.8c-2.9,3.8-5.3,7.8-8.2,12
				c7.6,4.5,14.7,8.6,22.1,12.9C775.5,845.2,774.5,835.2,780,825.7z M889.4,846.7c-9,0.9-17,1.7-24.1,6.1c-2.5,1.5-5.4,2.2-8.6,0.9
				c-2.6-1.1-4.7,0-5.1,2.9c-0.3,2.2-1.2,3.3-3.2,3.8c-1.6,0.4-3.3,0.5-4.8,1.1c-2.1,0.8-4.7,1.4-5.9,3c-2.9,4-4.1,8.8-4.2,14
				c2.7,1,5.1,1.9,7.4,2.8c0.5-3.4,1-6.3,1.4-9.2c0.9-6.2,4.5-9.3,11-8.8c0.1-3,0-5.7,3.9-5.8c4.6-0.1,9.2-0.6,13.8-1
				c5.9-0.5,11.8-1.2,18-1.8C889.2,852,889.3,849.6,889.4,846.7z M775,717.1c-4.6-2.2-5.7-5-3.8-9.9c0.9-2.4,2-4.7,0.6-7.8
				c-2.1,2.3-3.8,4.6-5.8,6.4c-5.4,4.8-11,9.5-16.6,14.2c-5.5,4.7-7.6,10.9-7.5,18.2c5-0.2,6.4-4.2,8.5-7.1
				c4.9-6.8,11.4-10.5,19.7-10.8C772.8,720.4,774.2,719.4,775,717.1z M496,731.8c2.1,4.3,4,8.3,6,12.3c1.1,2.1,4.5,0.2,5.9,3.7
				c2.4,6.4,6.6,11.8,11.8,16.3c0.7,0.6,1.3,1.6,1.7,2.4c2.8,5.9,9.4,7.4,13.5,12.7c0.4-5.8-0.3-6.9-2.9-10
				c-4.5-5.1-8.9-10.2-12.9-15.6c-1.9-2.6-3.4-5.1-7.8-4.3c2.3-2.4,6.1-2.9,4.9-7c-3.7,1-6.1-0.7-7.3-4
				C506.5,732.6,502,731.4,496,731.8z M749.6,696.7c4.1-4.5,8.5-8.8,12.4-13.5c3.6-4.4,2.1-9.9-2.8-12.5c-4.1-2.2-11.2-1.5-14.6,1.5
				c-2,1.8-2.8,4-1.7,6.7c1.3,3.2,2.8,6.4,4,9.6C747.8,691,748.6,693.6,749.6,696.7z M957.6,902c-1.9-1.3-3.3-2.5-4.9-3.3
				c-2.2-1.2-3.4-3-3.7-5.5c-0.7-4.7-3.7-7.7-7.9-8.6c-4.8-1.1-8.1-4.1-11.8-6.8c-1.6-1.1-3.1-2.3-5.3-3.9c-1.7,2.5-3.2,4.7-4.2,6.2
				c3.5,3.8,6.4,7.1,9.3,10.3c1.4-0.3,2.5-0.8,3.7-0.9c5.7-0.6,10,1.9,11.1,7.4c1,5,3.8,8.1,8,10.4c1.4,0.8,2.8,1.8,4.6,3
				C956.9,907.3,957.3,904.6,957.6,902z M822.3,785.7c-0.2-0.4-0.3-0.8-0.5-1.2c-7.9,2.2-15.9,4.4-23.8,6.6
				c-7.4,2.1-13.5,6-18.2,12.3c-4.9,6.5-10.4,12.6-15.5,18.8c-0.4,0.5-0.5,1.3-0.8,1.9c0.4,0.4,0.9,0.7,1.3,1.1
				c1.1-1.5,1.9-3.2,3.2-4.5c13-12.6,27.3-23.2,45-28.3C817.1,791.2,819.9,788.9,822.3,785.7z M821.1,778.4c-2,0.4-3.4,0.8-4.9,0.9
				c-17.8,1.8-33.4,9-48,18.8c-9.6,6.5-18.7,14-30.3,17.3c2.8-0.1,5.4-0.6,8-1.3c11.1-3,20.6-9.1,29.8-15.6
				c8.8-6.2,18.3-10.6,28.7-13.1c5.6-1.3,11.4-2.1,17.3-3.3C821.5,781,821.4,779.9,821.1,778.4z M942.2,829.2
				c7.1-7.4,6-15.6,2.2-21.4c-4.5-6.7-11.9-9.2-19.8-6.6C930.4,810.5,936.2,819.7,942.2,829.2z M889.7,665.6
				c0.2,0.1,0.5,0.1,0.7,0.2c0,1.3-0.1,2.7,0,4c0.5,5.8,1.9,11.5,5.4,16.3c3,4.2,7,3.9,9.4-0.5c0.6-1.2,1-2.4,1.4-3.7
				c1.8-5.5,1.7-11.2,0.5-16.7c-1-4.4-2.9-8.8-5.3-12.6c-2.8-4.3-7.3-3.6-9.2,1.2C891.2,657.5,890.6,661.6,889.7,665.6z
				 M840.2,722.1c3.7,10.4,0.1,20.7-4.1,31.3c9.4-3.8,13.3-10.5,14-19.3c0.2-2.4,1.1-3.8,3-5.3c6.1-4.7,11.9-9.5,17.8-14.4
				c1.1-0.9,2.9-1.7,2.1-4.3c-4.2,3.2-8,6.5-12.1,9.2c-3.9,2.6-7,6.4-12,7.4c5.5-4.8,11-9.5,16.9-14.6c-1-0.3-1.2-0.4-1.3-0.4
				c-2.3,1.6-4.4,3.7-6.9,4.7c-9.2,3.9-11.8,11.2-11.3,20.3c0.2,3.6-1.3,6.3-5.3,8.8c3.9-6.3,3.8-12.4,3.4-18.5
				c-0.2-3,0.9-4.9,3.2-6.7c4.3-3.4,8.2-7.3,12.3-11c0.7-0.6,1.1-1.6,1.6-2.4c-5.5,3.9-10.4,8.1-15.4,12.2
				C844.6,720.4,842.6,720.9,840.2,722.1z M715.4,883.1c0,2.9,0,4.7,0,6.6c-0.1,6.8-0.7,13.6,3.6,19.6c1,1.4,1,3.4,1.4,5.2
				c1.4,6.1,2.7,12.3,7.1,17.2c2.5,2.8,5.4,5.2,8.1,7.7c0.9-0.5,1.8-0.9,2.2-1.1c-2.8-3.9-6.4-7.4-8.2-11.7
				c-2.2-4.9-3.3-10.4-4-15.8C724.2,901.2,721.9,892.1,715.4,883.1z M949.6,801.9c3.4,18.6,3.2,20.2-3.6,35.1c1.5,2,3.1,4.1,4.8,6.2
				c1.6-3.2,3-5.9,4.4-8.7c2.5-5.3,4.4-10.8,4-16.7C958.6,811.1,958.7,803.8,949.6,801.9z M940.3,765.2c0.2-0.3,0.5-0.5,0.7-0.8
				c7.5,2.8,13.4,8.1,19.1,13.6c-7.1-11.7-22.5-23.1-29.2-21.4c4.5,1.8,5.3,5.6,6.1,9.2c0.6,2.5,2,3.6,3.9,4.6
				c8.8,4.4,15.7,11,20.7,19.5c0.8,1.3,1.9,2.4,2.9,3.5c0.7-1.5,0.8-2.8,0.4-3.7c-4.9-9.5-11.3-17.5-21.7-21.5
				C942.1,767.8,941.3,766.3,940.3,765.2z M676.8,835.3c0.4,0,0.7,0,1.1,0.1c0.1-0.9,0.4-1.8,0.3-2.7c-0.6-6.9-1.1-13.9-1.8-20.8
				c-0.6-5.7,1.3-11.6-2.1-16.9c-0.2-0.4-0.2-1-0.2-1.5c-0.7-8.3-1.4-16.5-2.1-24.8c-0.3-3.3,0.3-6.9-0.9-9.8
				c-1.3-3.2,0.1-6.3-1.2-9.7c-1.4-3.5-0.3-7.9-0.3-11.9c-0.4,0-0.9,0-1.3,0c0.1,5.4-2.6,10.8,0.1,16.2c-0.5,1.6-0.9,3.2-0.7,4.7
				c0.4,2.4,1,4.8,1.7,7.2c3.2,11,0.1,22.7,4.3,33.8c1.5,3.9,0.4,8.7,0.7,13.1C675.1,820,676,827.6,676.8,835.3z M702.9,849.7
				c-1.9-4.6-3.5-8.4-5-12.3c-10.8,4.8-8.5,4.8-8.1,16.7c2.7,2.5,7,3.4,7.5,8.2c0.1,0.9,2.3,1.7,3.5,2.5c0.1-0.2,0.3-0.4,0.4-0.6
				c-0.4-0.9-0.9-1.9-1.5-3.1c1.9-0.5,3.3-0.9,5.9-1.5c-2.1-1.5-3.2-2.5-4.5-3.3c-1.4-0.8-3-1.3-4.4-2.2c-0.7-0.5-1.3-1.7-1.1-2.4
				c0.2-0.7,1.2-1.6,2-1.8C699,849.5,700.5,849.7,702.9,849.7z M870.7,922.4c3.8,0,6.8,0,10,0c1.7-1.4,0.7-6.5,5.8-4.6
				c-0.7,1-1.6,1.9-1.7,2.9c-0.1,0.9,0.7,2.1,1.4,2.6c0.4,0.3,1.9-0.4,2.3-1.1c1.5-2.4-0.8-8.9-3.6-9.5c-2.7-0.6-3.8-2.1-4.7-4.4
				c-0.5-1.3-1.4-2.6-2.2-4c-2.3,2.9-4.4,5.5-6.7,8.3c0.5,1.2,1.2,2.7,1.9,4.1C872.4,918.7,871.5,920.6,870.7,922.4z M801.1,633.5
				c-0.9,5.3,0,6.6,4.5,7.5c9.9,2.1,17.7,7.3,22.7,16.2c1.3,2.3,0.7,6.7,2.3,7.5c2.8,1.5,4.6,3.6,6.5,5.8c1,1.2,1.9,2.4,2.8,3.5
				c-2.7-6-6-11.6-9.4-17.1c-1-1.7-2.5-3.1-3.4-4.8C821.5,641.7,812.4,636.2,801.1,633.5z M683.9,870.6c2.5,0.8,4.5,1.4,6.3,2.3
				c0.2,0.1-0.6,2.2-1.2,4.2c1.7,0.5,3.7,1.1,6.3,1.8c0.5-2.6,1.4-4.6,1.1-6.3c-0.4-1.9-1.6-4.5-3-5c-2.1-0.8-3.2-2.1-3.3-3.8
				c-0.1-1.4,1.1-2.8,1.7-4.3c-1.8-1.3-3.8-2.7-5.7-4.1C679.8,858.5,680.5,862.3,683.9,870.6z M897.4,915.8c0.6,6.9-0.9,13-4,18.9
				c-1.1,2.1-0.7,5.1-0.5,7.7c0.1,0.7,2.5,2,2.7,1.8c1.4-1.3,3.2-2.7,3.6-4.4c0.7-2.7,0.4-5.7,0.5-8.6c0-0.3,0.6-0.9,0.9-0.9
				c2.3-0.3,1.9-1.7,1.5-3.3c-0.3-1.2-0.4-2.4-0.6-3.6c3.5-1.2,5.1-3.3,4.4-5.5C904.9,915.3,902.1,914.5,897.4,915.8z M790.5,681.2
				c-0.9,0.7-2.6,1.4-3.4,2.8c-0.6,1-0.3,2.9,0.2,4.1c0.9,2.1,2.6,1.2,4.2,0.7c1.1-0.3,2.5,0.2,3.6,0.6c1.4,0.5,2.7,1.5,4.1,1.7
				c3.4,0.3,4.3,2.6,4.9,5.3c0.4,2.3,0.7,4.6,1.7,6.7c0.5,1,2.3,1.4,3.5,2.1c0.4-1.3,1.4-2.9,1-3.9c-1.3-3.7-2.8-7.4-4.6-10.9
				C802.7,684.6,797.2,682.7,790.5,681.2z M702.5,831.5c-0.4,0.1-0.9,0.2-1.3,0.3c0.4,1.9,0.5,4,1.3,5.8c0.9,2.1,2.4,3.9,3.6,6
				c1.5,2.7,2,5.4,0.6,8.5c-1.9,4.3-0.7,6.2,4.3,8.2c-0.1-1.8-0.3-3.7-0.5-5.8c2.3,0.9,3.8,1.5,5.5,2.1c0.2-1.1,0.3-1.3,0.2-1.4
				c-2.9-5.3-7.1-10.3-4.2-17.1c0.2-0.5-0.9-2.1-1.7-2.5C707.9,834,705.1,832.8,702.5,831.5z M803.2,652.3c5.1,2.4,10,4.1,14.3,6.9
				c4.5,2.9,7.7,7.2,9.5,12.3c0.8-0.1,1.3-0.1,1.7-0.3c0.6-0.3,1-0.8,1.6-1.3c-4.9-12.4-12.5-21.3-27.3-22c0.1,0.9,0.2,1.7,0.2,2.4
				C803.2,651.1,803.2,651.9,803.2,652.3z M749.5,742.1c12.9-0.6,20-7.9,16.3-16.3C756,729.4,751.5,733.8,749.5,742.1z M690.8,894.9
				c0.3-0.3,0.6-0.7,1-1c-2.6-4.9-5.4-9.6-7.7-14.6c-2.4-5.1-4.3-10.4-6.6-15.7c-2.2,1.3-4.8,2.8-4.5,5.8c0.4,4.5,1.6,9,5.7,11.6
				c4,2.6,6.3,6.2,8.6,10C688.2,892.4,689.6,893.6,690.8,894.9z M694.3,925.1c-0.4,1.3-1.1,3.3-1.6,4.9c2.4,2.9,4.5,5.4,6.4,7.8
				c3.1-0.4-0.6-5.7,4-5.2c0,0.6,0.1,0.9,0.1,1.2c-0.6,1.6-1.2,3.3,0.9,4.3c2.2,1,3.3-0.9,4.4-2.3c0.6-0.8,0.9-2.1,1-3.2
				c0.2-2.3,0-4.6,0-6C704.2,926.1,699.6,925.6,694.3,925.1z M834.5,803.7c9-7.8,18.6-13.9,31.6-11.9c-3.9-2.4-7.9-4.4-12-5.9
				c-2.5-0.9-6.9,0.8-7.4,3.3c-0.7,2.9-2.5,3.6-4.8,4.2c-3.1,0.8-5.4,2.2-5.7,5.8C836.1,800.8,835.1,802.2,834.5,803.7z
				 M882.9,673.2c-1,0.6-2,1-2.7,1.8c-2.4,2.3-4.5,4.9-7,7.1c-2.3,2.2-3.2,4.7-3.9,7.8c-0.9,3.5,0.2,8.1-4.2,10.4
				c-0.3,0.1,0.3,1.9,0.5,3c0.4,0.1,0.8,0.3,1.2,0.4c5.7-6.5,7-16.5,14.8-19.9C882,679.8,882.4,676.8,882.9,673.2z M906,934.9
				c-0.7,3.4-1.1,6.5-1.9,9.5c-0.7,2.5-0.2,3.9,2.5,4c1,0,2,0,2.8,0c1-1.3,2-2.4,2.7-3.6c0.6-1.1,1.4-2.6,1-3.5
				c-1.1-2.2-0.2-3.6,1-5.4c2.4-3.6,1.3-6.1-2.9-7.5c-1.1-0.3-2.2-0.6-3.2-0.9c-3.9,2.6,1,4.9,0.2,7.5
				C907.4,935,906.6,935,906,934.9z M821,683.2c1-4-0.4-6-2.1-7.8c-5-5.7-11.8-8.3-18.9-9.9c-3.7-0.8-4.7,0.5-3.8,4.9
				C806.3,670.3,812.7,678,821,683.2z M696.3,914.7c0,1.7-0.1,3.2,0,4.6c0.3,2.8,2,4.8,4.7,4.9c2.4,0.1,4.8-0.6,7.2-1.3
				c0.6-0.2,1.1-1.5,1.2-2.4c0.3-2.9,0.4-5.8,0.6-8.8c-3.9,1-7.7,2.6-11-0.3c-2.3,1.1-4.3,2-6.2,3c0.1,0.2,0.2,0.5,0.2,0.7
				C694,915,695.1,914.9,696.3,914.7z M694.2,937c-0.2,0.3-0.4,0.7-0.6,1c0.9,0.6,1.7,1.3,2.5,1.9c0.2,3.3-3.6,6.9,1.2,9.6
				c3.3,1.8,7.7,2.1,9.8,0.4c2.4-2,3.1-6.4,1.7-10.2c-2.6,0.2-5.3,1-7.8,0.6C698.6,939.8,696.5,938.2,694.2,937z M718.2,798.8
				c0.2-1.8,0.4-2.5,0.3-3.1c-1.1-5.8-2.2-11.7-3.3-17.5c-1-5.1-4.4-8.1-9.2-10C705.4,780.2,713.1,788.3,718.2,798.8z M676.7,706.6
				c-4.7,11.4-5,32.2-0.5,46c0.2-1.6,0.2-3.1,0.2-4.7c-0.1-3.6-0.3-7.2-0.3-10.8c0-3.7,0.8-7.6,0.1-11.2c-0.6-3.1,1.1-3.5,3.5-4.2
				c-3-4.1-3.1-7.9-0.3-11.5C678.5,709,677.7,707.9,676.7,706.6z M693.7,952.2c0.6,2.4,1.5,4.9,1.7,7.4c0.3,3.3,2.2,4.6,5,5.1
				c2.8,0.5,5.2-0.1,6.6-3c1.5-2.9,2.1-5.8,1.4-8.2C703.3,953.1,698.6,952.6,693.7,952.2z M558.7,816.1c-7.9,0.6-9.5,1.6-10,6.5
				c3.9,0.8,7.9,1.6,12.3,2.4c1-3.9,2.9-6.7,6.8-7.9c1.3-0.4,2.1-2.5,3.5-4.5c-4.2,0.2-7.4,0.3-11.1,0.5
				C559.8,813.9,559.2,815.1,558.7,816.1z M964.9,846.5c0.5-1.3,0.8-2.7,1-2.7c4.7,0.5,7.6,3.6,10.2,7.3c-0.1-1.6-0.5-3.1-1.2-4.3
				c-2.5-4.4-2.6-9.1-2.5-13.9c0.1-3.8-0.5-7.7-0.8-11.6c-1.7,4.7-3.5,9.2-4.1,13.8c-0.5,3.6-2.4,4.8-5.4,5.2
				c-1,0.2-2.1,0.2-4.1,0.5C960.8,843.1,962.6,844.7,964.9,846.5z M898.8,693.4c-10.5,0.5-17.8,11.4-14.4,21.1
				c1.4-1.2,2.7-2.4,4.1-3.5c0-2.2-2.8-5.1,1.5-6c0.3,0.9,0.6,1.8,1,2.7c0,0,0.3,0,0.9-0.1C893.7,702.9,897.6,698.9,898.8,693.4z
				 M690.8,751.6c-0.2,1.5-0.3,2.1-0.3,2.8c-0.8,8.2-0.8,16.6-2.6,24.6c-1.5,6.9-2.3,13.5-0.8,20.4c1-3.1,1.8-6.2,2.4-9.4
				c1.3-8.1,2.6-16.3,3.7-24.4C693.8,761.1,693.8,756.7,690.8,751.6z M698.8,909.1c2.4,0.5,4.6,0.9,6.9,1.3c2.9,0.4,4.4-1.1,4.6-3.9
				c0.2-2.7,0-5.5,0-8c-5-1.4-4.1,4.5-7.4,4.9c0.5-5.9,0.5-5.9-4.3-5.3c-0.2,1.6-0.7,3.3-0.7,4.9C698,904.8,698.4,906.6,698.8,909.1
				z M764.5,609.8c-7.6-1.7-12.6,2.9-15,13.8c2.5,0.4,5,0.8,7.4,1.2C759.5,619.5,761.9,614.8,764.5,609.8z M712.4,633.1
				c1.4-0.7,2.3-1.1,3.2-1.5c5.2-2.5,5.2-2.5,4.3-8.3c-0.2-1-0.2-2-0.5-2.9c-0.8-2.4-3.2-3.4-6.2-2.7c-2.5,0.6-4.4,1.7-3.6,4.8
				C710.4,625.9,711.4,629.4,712.4,633.1z M840.5,719.6c2.4-1.2,4.1-1.7,5.4-2.8c3.9-3.3,7.5-7,11.5-10.3c3.3-2.8,4.9-6.2,4.6-11
				c-5.2,4.8-9.9,9.4-14.9,13.7C844,711.7,841.6,714.4,840.5,719.6z M690.9,805.1c0.6,0.2,1.2,0.4,1.8,0.6c0.9-1.8,2.1-3.5,2.7-5.5
				c1.4-4.9,2.5-9.9,3.6-14.9c1.1-5,2.4-10,3.3-15c0.5-2.5-0.3-2.9-3.6-2.1c1,6.6-1.2,12.5-3.4,18.6
				C693.1,792.8,692.3,799.1,690.9,805.1z M928.3,900.1c0,3.4,2.6,6,6,5.9c3.3-0.1,6.1-2.9,6.1-6c0-3.2-2.8-5.8-6.2-5.8
				C930.7,894.3,928.3,896.6,928.3,900.1z M559.3,832.5c0.6-1.6,1.1-3.1,1.8-5c-3-0.7-6.1-1.4-9.1-2.1c-3-0.7-3.9,0.6-3.7,3.4
				c1.3,0.7,2.6,1.3,3.9,1.9c0.1,1.7,0.2,3.1,0.3,4.7c2.5,1.4,4.9,2.7,7.7,4.1c0.9-1.6,1.7-3,2.5-4.4
				C561.4,834.1,560.4,833.4,559.3,832.5z M955.1,977.2c-0.4-7.7-7.8-8.6-12-13.1c2-5-3.6-4.9-5.6-8.3c-1.4,2.3-2.4,4-3.7,6.2
				c4,1,4.9,3.6,4.9,7.1C946.2,968,951.3,971.4,955.1,977.2z M664.4,907.6c4.8-3.1,5.3-7.7,5.5-12c0.2-3.7,0-6.8,4.7-7.4
				c-0.5-2.8-0.9-5.2-1.3-8c-4.1,3-6.1,6.3-6,10.9c0,1.5-0.8,3.1-1.5,4.5C664,899.5,663.9,903.3,664.4,907.6z M571.1,757.1
				c-2.6-2.7-4.5-5.1-6.8-7.2c-2-1.8-4.1-2.1-6.8-0.6c-3.9,2.4-7.2,5.6-11.7,7.3c-2.1,0.8-4,2.9-3.4,5.7c3.7-2.1,7.4-4,10.9-6.1
				c5.6-3.3,11-4.4,16.1,0.9C569.6,757.3,569.8,757.2,571.1,757.1z M625.4,837.5c5.6,3,10.3,5.6,15.1,8.1c-1.2,3-2.2,5.6-3.4,8.4
				c3,2.5,5.9,4.8,9.4,7.7c0.7-5.5-4.8-5.3-6-8.5c1.4-2.7,2.8-5.4,4.1-8C639.6,840.7,634.2,838.5,625.4,837.5z M929.9,761.5
				c-0.3-0.3-0.5-0.6-0.8-0.8c-0.9,0.3-2,0.4-2.5,1.1c-2.9,3.6-5.8,7.3-8.5,11c-0.5,0.7-0.4,2.2,0,3.2c2.3,5.8,4.7,11.6,7.2,17.4
				c0.3,0.7,1,1.3,1.5,2c-1.1-6.1-3-11.9-5-17.5c-0.8-2.3-0.8-4.2,0.9-6.3C925.3,768.3,927.5,764.8,929.9,761.5z M590.5,794.8
				c-0.4-0.3-0.8-0.5-1.2-0.8c-1.9,2.2-4.5,4.1-5.5,6.6c-2.3,5.8-5.3,11.1-10,15.4c6.9-3.1,10.9-10.9,19.3-11.3
				c-1.4-0.2-2.8-0.4-4.4-0.7C589.3,800.9,589.9,797.8,590.5,794.8z M691.1,722.1c5.7,10.1,14.1,14,24.4,16.4
				C709.2,729.9,699.5,728,691.1,722.1z M629.4,831c-9.7-5.2-19.3-10.3-29.2-15.6C606.7,826.7,618.3,828.3,629.4,831z M823.5,697.6
				c0.5,0.3,0.9,0.5,1.4,0.8c2-1.7,4-3.5,5.7-5c-2.1-4.2-3.8-7.8-5.6-11.4c-2.8,3.4-5.2,6.3-7.8,9.4c1.7,0,3-0.1,4.3,0
				c1.2,0.1,2.5,0.4,3.9,0.6C824.7,694.2,824.1,695.9,823.5,697.6z M916.9,956.4c0.4,0,0.9,0.1,1.3,0.1c1.1-1.8,2.4-3.4,3.1-5.3
				c1-2.9,1.7-6,2.3-9c0.2-1.1,0.1-3-0.6-3.3c-1.1-0.6-2.9-0.7-4.1-0.2c-0.9,0.4-1.9,2.2-1.7,3.1c0.9,3.9,1.3,7.5-1.2,11.1
				C915.6,953.5,916.6,955.2,916.9,956.4z M979,812c-1.7-2.9-3.8-5.6-4.9-8.8c-1.2-3.3-3.1-4.6-6.6-4.8c1,3.3,1.9,6.1,2.9,9.4
				c-2,0-3.4,0-4.5,0c-0.7,3-1.4,5.7-2.2,8.8c2.3-2.7,3.8-6.4,6.2-7C972.6,809,975.9,811.1,979,812z M955.1,869.2c2.1,0,3.5,0,5,0
				c1-4.7,1.9-9.2,2.8-13.6c-2.5-1.8-5.7-2.8-5.2-6.8c-0.8,1.2-1.6,2.3-2.6,3.7c4.4,3.4,3.6,7.3,1.6,11.5
				C956,865.5,955.7,867.1,955.1,869.2z M689.6,923.8c-1.5-7.1-3-13.2-4-19.4c-0.4-2.8-1.4-4.5-4-5.6
				C680.7,909,682.3,914.2,689.6,923.8z M702.7,739.9c2.8,6.2,8.3,10.3,14.2,10.2c2.2,0,4.1-0.9,4.5-3.1
				C715.1,744.6,709,742.3,702.7,739.9z M570.3,825.4c0.3,0.3,0.6,0.6,0.9,0.9c0.7-0.4,1.5-0.6,2-1.1c2.5-2.4,4.6-5.3,7.4-7.3
				c4.2-3.2,8.4-7.3,14.6-4.7c0.4,0.2,1.3-0.8,2.7-1.6c-2.6-0.9-4.5-2-6.3-2.1c-1.9-0.1-4.3,0.2-5.8,1.3c-3.5,2.4-6.7,5.2-9.8,8.1
				C573.8,820.9,572.2,823.2,570.3,825.4z M832.8,686.2c3.2-1.6,6.8-3.4,6.2-6.8c-0.5-2.9-1.5-6.8-5.7-8.1c-1.7,1.9-3.3,3.7-4.9,5.6
				C833.2,678.4,835,682,832.8,686.2z M730.6,823.7c-1.3-4.3-6.7-0.7-8.2-5.1c0.7-1.4,1.6-3.2,2.5-5c-5,0.4-7.8,2.4-8.5,5.9
				c-0.5,2.4,0.6,4.4,2.7,4.5C722.7,824.5,726.4,823.9,730.6,823.7z M876.4,694.2c2.5,2.2,4.6,4,6.7,5.8c1.6-1.9,3.3-4,5.1-6.1
				c-1.8-2.1-3.6-4.2-5.5-6.4C880.7,689.6,878.9,691.5,876.4,694.2z M676.5,901.7c-0.7,1-1.9,2.1-2,3.1c0,2.3,0.3,4.6,1,6.8
				c1.8,5.5,4.5,10.3,9.6,13.7C680.6,918.3,677.1,911,676.5,901.7z M574.7,827.9c0.3,0.2,0.5,0.5,0.8,0.7c2.8-2.7,5.6-5.4,8.4-8.1
				c3.6-3.4,7.1-3.4,11-0.3c1.3,1,2.7,2,4,3c0.2-0.3,0.5-0.5,0.7-0.8c-1.7-2-3.4-4-5.1-5.9c-1.9-2.1-4.4-2.1-6.4-0.8
				C582.9,819,577.7,822.4,574.7,827.9z M864.4,665.5c0.7-3.5,1.3-6.6,2-10.3c-3.5,1.2-6.4,2.2-10.2,3.6c-0.2,1.1-0.6,3.1-1,5.4
				C860.7,662,861.9,662.1,864.4,665.5z M929.5,945.4c-1.3,4.4-2.4,8.1-3.5,11.8c-1.6,0.1-3,0.3-4.8,0.4c4.8,2.5,6.6,2.4,8.6-0.2
				C932.8,953.7,932.9,949.3,929.5,945.4z M810.6,708.1c2.1,4.7,3.6,8,5.3,11.9c0.5-1.4,1.2-2.4,1.2-3.4c0.1-2.4-0.2-4.8-0.3-7.2
				c-0.1-1-0.2-2.1-0.3-3.1c-1.2,0.1-2.5,0.1-3.7,0.5C811.7,707.1,810.8,707.9,810.6,708.1z M872.2,954.9c0.1-0.5,0.3-0.9,0.2-1.1
				c-1.7-3.6-4.8-6.9-2.2-11.4c0.2-0.3-0.7-1.6-1.3-1.8c-0.6-0.2-1.7,0.1-2.2,0.6c-2.8,2.7-2.5,6.7,0.6,9.5
				C868.9,952.1,870.5,953.5,872.2,954.9z M709.6,896.4c2.4-4,1.4-7.5,0.7-10.9c-0.3-1.7-2.8-2-3.7-0.3c-0.6,1.2-0.9,2.8-0.6,4
				C706.8,891.5,708.2,893.7,709.6,896.4z M684.2,750.6c0.3,0.1,0.7,0.2,1,0.3c0.9-7.2,1.8-14.4,2.7-21.6
				C682.8,735.9,684.6,743.4,684.2,750.6z M924.7,780c3.7-5.6,6.8-10.2,10.5-15.7C930.5,766.1,924.6,774.8,924.7,780z M916.2,929.1
				c3.4-1.5,3.6-3.3,1.3-5c-2.6-1.9-5.5-3.2-9.1-2.2c1,4.1,4.7,1.5,6.6,3.1C915.3,926.2,915.7,927.4,916.2,929.1z M602.8,832.4
				c-2.5-2.9-4.7-5.5-6.9-8c-0.2,0.2-0.5,0.4-0.7,0.6c1.6,2.3,3.3,4.6,4.9,7c-4.4,5.3-4.4,5.3-3,7.1
				C598.9,836.9,600.7,834.8,602.8,832.4z M778.3,704.3c1-3.2,1.7-5.9,2.6-8.7c-1.9-1.3-4.1-1.6-4.7,1.3c-0.5,2.1,0.2,4.5,0.6,6.8
				C776.8,704,778,704.2,778.3,704.3z M845.1,760.2c-0.2,0.4-0.5,0.8-0.7,1.2c6.5,2.2,11.5,7.8,19.1,7.5
				C857.4,766,851.3,763.1,845.1,760.2z"/>
			<path d="M738.7,729.1c-3.6,3.3-1.5,7.8-2.3,11.7c-2.7,0.6-5.2,1.1-7.8,1.6c-2.6,0.4-4.6-0.3-5.5-3c-1.2-3.6-3.3-6.2-6.9-8
				c-2-1-3.3-3.6-4.7-5.7c-1.3-1.8-2.2-3.9-3.4-6.1c0.7,0.2,1.7,0.4,2.6,0.7c11.5,3.2,21.3-0.7,30-7.8c4.1-3.3,7.5-7.5,11.4-11.3
				c1.5,2.5-5.7,5.8,0.8,7.6c-0.3,1.4-5-0.1-2.1,3.3c-0.9,0.7-1.9,1.4-2.8,2.1c-5.3,3.7-8.4,8.8-9.5,15.1L738.7,729.1z"/>
			<path d="M826.2,749.2c-1.3,2.7-2,5.3-3.5,7.3c-2.3,2.9-5.8,2.5-7.9-0.6c-2.5-3.6-2.5-10.6,0.1-14.1c2.1-3,5.8-3.3,8-0.3
				C824.4,743.6,825.1,746.4,826.2,749.2z"/>
			<path d="M919.8,742.6c1.2,2.4,2.3,3.6,2.5,5c0.3,1.9-1,3.4-2.9,2.9c-1-0.3-2.4-2-2.4-3C917.1,746.1,918.4,744.9,919.8,742.6z"/>
			<path d="M898,654.3c1.1,1.1,2.5,1.9,3.1,3.1c3.2,6.6,4.3,13.5,2.2,20.7c-0.8,2.7-3,3.1-4.9,1.2c-4.4-4.5-5.6-18.8-1.9-24
				C896.7,655.1,897,655,898,654.3z M899.5,661.1c-4,4.9-3.9,10.3,0,14.2C903.5,671.1,903.6,665.9,899.5,661.1z"/>
		</g>
	</g>
</g>
</svg>
